# xmcd
#
# Track frame offsets: 
#        150
#        13704
#        32019
#        48807
#        64312
#        81939
#        96804
#        115879
#        134519
#        152500
#        169859
#
# Disc length: 2487 seconds
#
# Revision: 0
# Processed by: cddbd v1.5.2PL0 Copyright (c) Steve Scherf et al.
# Submitted via: ExactAudioCopy v0.95a5
#
DISCID=8909b50b
DTITLE=Jo Hikk - Ride
DYEAR=2008
DGENRE=Country
TTITLE0=Ride
TTITLE1=Scarecrow
TTITLE2=West Coast Crude
TTITLE3=Pimp my Tractor
TTITLE4=Shame on the Moon
TTITLE5=Sweet City Woman
TTITLE6=Dancing with the Devil's Daughter
TTITLE7=Suck it Up
TTITLE8=My Kind of Radio
TTITLE9=It's Only Monday
TTITLE10=Closer
EXTD=
EXTT0=
EXTT1=
EXTT2=
EXTT3=
EXTT4=
EXTT5=
EXTT6=
EXTT7=
EXTT8=
EXTT9=
EXTT10=
PLAYORDER=
